<mxfile host="app.diagrams.net" modified="2023-09-30T13:42:42.077Z" agent="Mozilla/5.0 (Windows NT 10.0; Win64; x64) AppleWebKit/537.36 (KHTML, like Gecko) Chrome/117.0.0.0 Safari/537.36 Edg/117.0.2045.43" version="21.8.2" etag="ErfGZ3ZFTfYtqxTLrEpH" type="github">
  <diagram name="Page-1" id="Juy-E7OY1KwQ-r5mn0ih">
    <mxGraphModel>
      <root>
        <mxCell id="0" />
        <mxCell id="1" parent="0" />
      </root>
    </mxGraphModel>
  </diagram>
</mxfile>
